<svg width="154" height="50" viewBox="0 0 154 50" fill="none" xmlns="http://www.w3.org/2000/svg">
<path d="M133.098 25.9596L133.1 25.9614C134.006 26.8825 135.19 27.3287 136.602 27.3287C137.829 27.3287 138.948 26.961 139.942 26.232C140.456 25.8615 140.947 25.3989 141.416 24.8487C141.617 25.4694 141.93 25.9953 142.368 26.4082L142.368 26.4083L142.375 26.415C143.065 27.0399 143.966 27.3287 145.024 27.3287C145.839 27.3287 146.617 27.1842 147.355 26.8934L147.357 26.8927C148.359 26.4931 149.249 25.8425 150.027 24.9561L150.027 24.9561L150.032 24.9512C150.949 23.8779 151.713 22.4437 152.337 20.6709L152.571 20.005H151.865H150.434H150.056L149.953 20.3687C149.686 21.3109 149.355 21.997 148.98 22.4594L148.979 22.4607C148.532 23.0162 148.097 23.2253 147.671 23.2253C147.288 23.2253 147.092 23.126 146.984 23.0134C146.873 22.8961 146.773 22.6753 146.773 22.257C146.773 21.898 146.817 21.5799 146.902 21.2991L146.907 21.2792L146.912 21.2588L149.358 9.64591L149.486 9.04283H148.869H143.959H143.55L143.469 9.44414L143.429 9.64156C143.352 9.57313 143.268 9.50855 143.177 9.44794C142.599 9.04067 141.79 8.87598 140.83 8.87598C138.839 8.87598 137.08 9.61657 135.573 11.0682L135.573 11.0681L135.571 11.0703C134.275 12.3341 133.268 13.9825 132.537 15.9964L132.537 15.9964L132.536 15.9983C132.217 16.8913 131.976 17.7966 131.816 18.7142C131.645 19.6294 131.558 20.5048 131.558 21.3393C131.558 23.3061 132.043 24.8767 133.098 25.9596ZM139.405 22.871L139.405 22.871L139.398 22.8743C139.175 22.9818 138.982 23.025 138.816 23.025C138.627 23.025 138.469 23.006 138.338 22.9733C138.269 22.956 138.19 22.9144 138.101 22.8182L138.09 22.8064L138.078 22.7954C137.817 22.5469 137.602 21.9683 137.602 20.8554C137.602 20.3401 137.649 19.7591 137.746 19.1107L137.746 19.1095C137.842 18.4544 137.987 17.7924 138.181 17.1235L138.181 17.1235L138.183 17.1183C138.605 15.5972 139.134 14.3911 139.759 13.4829C140.11 12.9858 140.47 12.6144 140.835 12.3545C141.196 12.1041 141.542 11.995 141.879 11.995C142.218 11.995 142.435 12.0991 142.592 12.2777C142.644 12.3616 142.685 12.4518 142.713 12.5497L142.719 12.5711L142.727 12.5918C142.756 12.6672 142.768 12.7218 142.774 12.7585L141.157 20.3993C141.157 20.3996 141.157 20.3999 141.157 20.4002C140.975 21.2373 140.62 21.8936 140.104 22.3935C139.872 22.6058 139.639 22.7627 139.405 22.871Z" fill="#FFE0B2" stroke="black"/>
<path d="M124.303 26.1864L124.306 26.1892C125.13 26.9757 126.3 27.3286 127.731 27.3286C130.776 27.3286 132.963 24.9346 134.413 20.6657L134.637 20.0049H133.939H132.508H132.182L132.05 20.3031C131.797 20.876 131.581 21.3312 131.4 21.6724C131.224 22.0053 131.049 22.2673 130.879 22.4659L130.879 22.4658L130.874 22.4728C130.702 22.6804 130.526 22.819 130.349 22.9051C130.186 22.9784 129.967 23.025 129.678 23.025C129.292 23.025 129.095 22.9344 128.995 22.8416C128.902 22.7553 128.813 22.5927 128.813 22.2569C128.813 22.0174 128.833 21.7584 128.875 21.479L128.875 21.4765C128.918 21.1732 128.967 20.8876 129.02 20.6195L129.02 20.6195L129.021 20.6136C129.156 19.8946 129.229 19.3181 129.229 18.9032C129.229 17.7621 128.989 16.8191 128.39 16.2032C127.733 15.5174 126.721 15.233 125.484 15.233C125.434 15.233 125.385 15.2333 125.337 15.234C125.375 15.1914 125.411 15.1494 125.447 15.1079L125.448 15.1069C125.711 14.7984 125.912 14.5763 126.054 14.4343L126.062 14.4258L126.07 14.417L126.398 14.0561C126.767 13.6755 127.1 13.3524 127.398 13.0855L127.399 13.0848C127.504 12.9905 127.611 12.9008 127.719 12.8157C127.81 13.0468 127.944 13.2623 128.12 13.4596C128.57 13.9824 129.205 14.2141 129.944 14.2141C130.727 14.2141 131.402 13.9901 131.887 13.4754C132.377 12.9681 132.592 12.2847 132.592 11.4949C132.592 10.7216 132.357 10.0504 131.854 9.53066C131.332 8.98083 130.601 8.74243 129.745 8.74243C129.274 8.74243 128.818 8.81086 128.379 8.94908L128.379 8.94901L128.371 8.95174C127.57 9.21936 126.762 9.78888 125.945 10.6079C125.461 11.0936 124.556 12.0513 123.236 13.4742L123.236 13.4741L123.228 13.4838L122.982 13.763C122.685 14.0846 122.384 14.4052 122.079 14.7247L123.176 9.64843L123.307 9.04277H122.687H117.777H117.373L117.288 9.43844L113.643 26.5241L113.514 27.1284H114.132H119.042H119.449L119.532 26.7302L120.994 19.6965L121.544 19.2495L122.065 18.8703C122.337 18.7095 122.553 18.6523 122.721 18.6523C123.042 18.6523 123.204 18.7477 123.303 18.872C123.419 19.0184 123.519 19.2952 123.519 19.7875C123.519 19.9837 123.501 20.1738 123.465 20.3582C123.435 20.4753 123.412 20.6404 123.393 20.8262C123.364 20.9356 123.343 21.0729 123.325 21.2159C123.192 21.9949 123.12 22.6096 123.12 23.0411C123.12 24.3318 123.496 25.4031 124.303 26.1864Z" fill="#FFE0B2" stroke="black"/>
<path d="M106.394 24.8196C106.598 25.4387 106.912 25.9629 107.347 26.3746C108.038 27.0265 108.948 27.3287 110.021 27.3287C110.836 27.3287 111.614 27.1843 112.352 26.8934L112.353 26.8927C113.356 26.4931 114.246 25.8425 115.024 24.9561L115.024 24.9562L115.028 24.9512C115.946 23.8779 116.71 22.4438 117.334 20.6709L117.568 20.005H116.862H115.43H115.052L114.949 20.3695C114.695 21.2737 114.367 21.9184 113.991 22.3424L113.99 22.3437C113.565 22.8262 113.128 23.025 112.668 23.025C112.224 23.025 112.014 22.9356 111.927 22.8608C111.869 22.8115 111.769 22.6647 111.769 22.257C111.769 21.898 111.814 21.5799 111.898 21.2991L111.904 21.2792L111.908 21.2588L114.355 9.64593L114.482 9.04285H113.866H108.956H108.55L108.467 9.4396L106.158 20.379C105.87 21.3027 105.549 21.9459 105.214 22.3486C104.789 22.8299 104.358 23.025 103.913 23.025C103.703 23.025 103.614 22.9614 103.556 22.8813C103.476 22.7713 103.397 22.5452 103.397 22.1235C103.397 21.8609 103.426 21.5717 103.487 21.2546L105.933 9.64593L106.06 9.04285H105.444H100.534H100.128L100.044 9.4396L97.7309 20.4018L97.7308 20.4023C97.5484 21.2709 97.4538 22.0518 97.4538 22.7408C97.4538 24.1916 97.8313 25.3773 98.6636 26.2126C99.4086 26.9717 100.407 27.3287 101.599 27.3287C102.58 27.3287 103.468 27.1243 104.25 26.7012L104.252 26.7001C105.039 26.2699 105.751 25.6378 106.394 24.8196Z" fill="#FFE0B2" stroke="black"/>
<path d="M80.2445 9.91657L80.3009 9.6442L80.4254 9.04283H79.8113H74.9012H74.4958L74.412 9.43942L70.8001 26.5251L70.6726 27.1285H71.2893H76.1995H76.6049L76.6887 26.7317L78.9974 15.7924C79.2854 14.8685 79.6205 14.1881 79.9873 13.7237L79.9874 13.7237L79.9919 13.7178C80.3975 13.1883 80.8225 12.9794 81.276 12.9794C81.4569 12.9794 81.5681 13.0397 81.6643 13.1897C81.7421 13.3254 81.808 13.5715 81.808 13.9811C81.808 14.2443 81.7788 14.4871 81.723 14.711L81.7208 14.7197L81.7189 14.7285L79.2223 26.5249L79.0945 27.1285H79.7114H84.6216H85.027L85.1108 26.7317L87.4195 15.7924C87.7076 14.8679 88.0372 14.1938 88.3923 13.7409C88.8213 13.2039 89.2234 13.0128 89.5983 13.0128C89.8742 13.0128 90.0165 13.101 90.113 13.2383C90.2322 13.4078 90.3299 13.7241 90.3299 14.2647C90.3299 14.6994 90.2691 15.2317 90.1402 15.8672L90.1402 15.8672L90.1389 15.8737C90.0188 16.5084 89.8321 17.3678 89.5777 18.4545C89.3219 19.5251 89.126 20.4052 88.9911 21.0928L88.991 21.0928L88.9896 21.1006C88.864 21.799 88.7987 22.4249 88.7987 22.9744C88.7987 24.1482 89.1207 25.1544 89.7996 25.951C90.6014 26.899 91.8076 27.3287 93.31 27.3287C94.6054 27.3287 95.763 26.9375 96.7633 26.1551C98.1621 25.0669 99.2684 23.2077 100.125 20.6647L100.348 20.005H99.6515H98.2201H97.8806L97.7554 20.3206C97.3487 21.3452 96.9897 22.0109 96.6888 22.3692L96.6884 22.3696C96.3095 22.8217 95.8745 23.025 95.3572 23.025C94.9376 23.025 94.7563 22.9242 94.6781 22.8397C94.5738 22.7001 94.4924 22.4692 94.4924 22.0901C94.4924 21.846 94.5305 21.503 94.6165 21.0505C94.7915 20.1626 95.0161 19.19 95.2908 18.1323C95.4485 17.5672 95.584 17.007 95.6971 16.4518C95.9767 15.1285 96.1236 14.0604 96.1236 13.2636C96.1236 11.8634 95.7429 10.7243 94.8977 9.94314L94.8977 9.94311L94.8932 9.93911C94.1125 9.23472 93.0768 8.90935 91.8453 8.90935C90.9745 8.90935 90.1606 9.09175 89.4111 9.46115C88.6288 9.84423 87.9285 10.4233 87.3054 11.1823C87.0588 10.5608 86.6933 10.0442 86.1968 9.65131L86.1956 9.65032C85.5166 9.11648 84.6361 8.87598 83.6062 8.87598C82.8503 8.87598 82.1302 9.0025 81.4496 9.25834L81.4496 9.25828L81.4417 9.26138C81.0236 9.42667 80.6247 9.64582 80.2445 9.91657Z" fill="#FFE0B2" stroke="black"/>
<path d="M60.1626 25.9261L60.1634 25.9269C61.1941 26.8845 62.6249 27.3286 64.3819 27.3286C66.5505 27.3286 68.5423 26.6325 70.3443 25.2573L70.3465 25.2556C71.8039 24.1309 73.081 22.6274 74.1833 20.759L74.6283 20.0049H73.7527H72.5876H72.3655L72.2166 20.1698C71.6895 20.7531 71.232 21.2335 70.8431 21.6126C70.4655 21.9698 70.0747 22.2775 69.6708 22.537L69.6708 22.537L69.6675 22.5392C68.7289 23.1528 67.6978 23.4588 66.5623 23.4588C65.7622 23.4588 65.3182 23.2787 65.0906 23.0437L65.0907 23.0436L65.0854 23.0384C64.8108 22.7631 64.5989 22.1715 64.5989 21.0889C64.5989 20.8582 64.6133 20.5569 64.6433 20.1823C65.5544 20.0832 66.4396 19.8615 67.2977 19.5174L67.2977 19.5174L67.3023 19.5155C68.2936 19.1063 69.1835 18.5611 69.9692 17.8792L69.9693 17.8793L69.9724 17.8765C70.7617 17.1797 71.3848 16.3781 71.8366 15.4723L71.8378 15.4699C72.2937 14.5438 72.5217 13.556 72.5217 12.5127C72.5217 11.4451 72.258 10.5482 71.6548 9.90228L71.6548 9.90227L71.6523 9.89961C70.8864 9.09145 69.715 8.74243 68.26 8.74243C65.9549 8.74243 63.9943 9.55001 62.4108 11.1611L62.4104 11.1615C61.7346 11.8506 61.1432 12.642 60.6352 13.5332L60.6352 13.5332L60.6328 13.5375C60.1395 14.423 59.7328 15.3594 59.4123 16.346L59.4122 16.3464C59.1273 17.2262 58.9158 18.1074 58.7784 18.9901C58.631 19.8666 58.5556 20.6725 58.5556 21.4059C58.5556 23.3545 59.0597 24.8968 60.1626 25.9261ZM68.7447 11.6347L68.7509 11.6471L68.7578 11.6591C68.8276 11.7816 68.8919 12.0236 68.8919 12.446C68.8919 13.0691 68.772 13.6844 68.5286 14.2949C68.2835 14.8984 67.9474 15.4448 67.5189 15.9361C67.0909 16.4158 66.6046 16.801 66.059 17.0947C65.7379 17.2676 65.4147 17.3947 65.0888 17.4777C65.2294 16.8754 65.401 16.2816 65.6034 15.6962C65.8843 14.8841 66.1952 14.1651 66.5348 13.5371C66.9069 12.866 67.2776 12.3608 67.6414 12.0054C68.0078 11.6581 68.3061 11.5444 68.543 11.5444C68.6334 11.5444 68.6756 11.5621 68.6922 11.5714C68.705 11.5787 68.7235 11.5922 68.7447 11.6347Z" fill="#FFE0B2" stroke="black"/>
<path d="M41.5295 9.91657L41.5859 9.6442L41.7104 9.04283H41.0963H36.1861H35.7808L35.697 9.43942L32.0851 26.5251L31.9575 27.1285H32.5743H37.4844H37.8899L37.9736 26.7317L40.2824 15.7924C40.5703 14.8685 40.9055 14.1881 41.2723 13.7237L41.2723 13.7237L41.2768 13.7178C41.6825 13.1883 42.1074 12.9794 42.561 12.9794C42.7418 12.9794 42.8531 13.0397 42.9492 13.1897C43.027 13.3254 43.0929 13.5715 43.0929 13.9811C43.0929 14.2443 43.0638 14.4871 43.0079 14.711L43.0058 14.7197L43.0039 14.7285L40.5072 26.5249L40.3795 27.1285H40.9964H45.9065H46.312L46.3957 26.7317L48.7045 15.7924C48.9926 14.8679 49.3221 14.1938 49.6773 13.7409C50.1063 13.2039 50.5083 13.0128 50.8832 13.0128C51.1592 13.0128 51.3014 13.101 51.398 13.2383C51.5171 13.4078 51.6149 13.7241 51.6149 14.2647C51.6149 14.6994 51.5541 15.2317 51.4252 15.8672L51.4251 15.8672L51.4239 15.8737C51.3038 16.5084 51.1171 17.3678 50.8627 18.4545C50.6068 19.5251 50.411 20.4052 50.2761 21.0928L50.276 21.0928L50.2746 21.1006C50.149 21.799 50.0836 22.4249 50.0836 22.9744C50.0836 24.1482 50.4057 25.1544 51.0846 25.951C51.8864 26.899 53.0926 27.3287 54.5949 27.3287C55.8903 27.3287 57.0479 26.9375 58.0483 26.1551C59.4471 25.0669 60.5534 23.2077 61.4103 20.6647L61.6326 20.005H60.9365H59.5051H59.1656L59.0403 20.3206C58.6337 21.3452 58.2747 22.0109 57.9737 22.3692L57.9733 22.3696C57.5945 22.8217 57.1594 23.025 56.6422 23.025C56.2226 23.025 56.0413 22.9242 55.963 22.8397C55.8587 22.7001 55.7774 22.4692 55.7774 22.0901C55.7774 21.846 55.8155 21.503 55.9014 21.0505C56.0764 20.1626 56.301 19.19 56.5757 18.1323C56.7335 17.5672 56.8689 17.007 56.982 16.4518C57.2616 15.1285 57.4085 14.0604 57.4085 13.2636C57.4085 11.8634 57.0279 10.7243 56.1826 9.94314L56.1826 9.94311L56.1782 9.93911C55.3975 9.23472 54.3618 8.90935 53.1302 8.90935C52.2595 8.90935 51.4455 9.09175 50.696 9.46115C49.9138 9.84423 49.2134 10.4233 48.5904 11.1823C48.3437 10.5608 47.9782 10.0442 47.4818 9.65131L47.4805 9.65032C46.8015 9.11648 45.921 8.87598 44.8912 8.87598C44.1353 8.87598 43.4152 9.0025 42.7346 9.25834L42.7345 9.25828L42.7267 9.26138C42.3086 9.42667 41.9096 9.64582 41.5295 9.91657Z" fill="#FFE0B2" stroke="black"/>
<path d="M21.4475 25.9261L21.4483 25.9269C22.479 26.8845 23.9099 27.3286 25.6668 27.3286C27.8354 27.3286 29.8273 26.6325 31.6293 25.2573L31.6314 25.2556C33.0889 24.1309 34.3659 22.6274 35.4683 20.759L35.9132 20.0049H35.0377H33.8726H33.6505L33.5016 20.1698C32.9745 20.7531 32.517 21.2335 32.1281 21.6126C31.7505 21.9698 31.3596 22.2775 30.9558 22.537L30.9558 22.537L30.9525 22.5392C30.0138 23.1528 28.9828 23.4588 27.8473 23.4588C27.0472 23.4588 26.6031 23.2787 26.3756 23.0437L26.3756 23.0436L26.3704 23.0384C26.0958 22.7631 25.8839 22.1715 25.8839 21.0889C25.8839 19.8662 26.0962 18.4833 26.531 16.9361L26.5311 16.9361L26.5326 16.9304C26.9567 15.3497 27.4837 14.0701 28.1046 13.0784L28.1046 13.0784L28.1073 13.074C28.4531 12.5087 28.7745 12.1151 29.0657 11.8675C29.3553 11.6214 29.5844 11.5444 29.7614 11.5444C29.9055 11.5444 29.9725 11.588 30.0331 11.6877L30.0398 11.6987L30.047 11.7094C30.1364 11.8409 30.2101 12.0682 30.2101 12.446C30.2101 12.9948 30.0878 13.6065 29.8272 14.2858L29.6804 14.6682L30.0265 14.8874C30.503 15.189 30.9944 15.3653 31.4924 15.3653C32.1675 15.3653 32.7366 15.0893 33.1628 14.5624L33.1648 14.5599C33.6144 13.9965 33.8067 13.2482 33.8067 12.3793C33.8067 11.3707 33.5217 10.5156 32.8988 9.87756L32.8988 9.87754L32.895 9.87374C32.1101 9.08689 30.9469 8.74243 29.5117 8.74243C27.2791 8.74243 25.3397 9.5534 23.7176 11.1559L23.7166 11.1569C22.4057 12.4593 21.4102 14.1906 20.7148 16.3267C20.4182 17.2076 20.2009 18.0957 20.0633 18.9906C19.9159 19.8669 19.8406 20.6727 19.8406 21.4059C19.8406 23.3545 20.3446 24.8968 21.4475 25.9261Z" fill="#FFE0B2" stroke="black"/>
<path d="M13.8503 14.2809H7.22475H6.60488L6.73608 13.675L7.28535 11.1389L7.37072 10.7447H7.77402H14.3008C14.321 10.3995 14.3313 10.0213 14.3313 9.60957C14.3313 7.80717 14.0557 6.55059 13.5733 5.76718L13.5733 5.76709C13.0439 4.90704 12.1438 4.4366 10.7367 4.4366C9.59079 4.4366 8.62861 4.74724 7.82561 5.35345L7.81959 5.35799L7.81956 5.35795C7.44395 5.63271 7.07207 5.9782 6.70498 6.39842C6.34247 6.82621 5.94878 7.35011 5.52388 7.97264L5.2924 8.31178L4.91472 8.15067L4.13243 7.81697L3.68167 7.62468L3.86487 7.17015C4.325 6.02852 4.90401 5.02716 5.60535 4.17148C6.30027 3.31257 7.07534 2.59855 7.93161 2.03414L7.93468 2.03212L7.93468 2.03213C8.72813 1.51747 9.56059 1.13471 10.4314 0.886762C11.3048 0.630135 12.1671 0.5 13.017 0.5C14.3406 0.5 15.5006 0.659647 16.4861 0.99239C17.4903 1.31652 18.336 1.83788 19.009 2.56162C19.6947 3.29816 20.1886 4.24054 20.5051 5.36764C20.8325 6.49396 20.9904 7.84466 20.9904 9.40934C20.9904 11.218 20.7748 13.0469 20.3449 14.8952L20.344 14.899C19.8035 17.1455 19.0799 19.1275 18.1688 20.84L18.1663 20.8448L18.1662 20.8448C17.0501 22.8884 15.6893 24.5014 14.0763 25.665C12.2334 27.0092 10.1155 27.6791 7.74073 27.6791C5.91598 27.6791 4.41127 27.3118 3.27827 26.5223C1.99087 25.636 1.36523 24.296 1.36523 22.5907C1.36523 21.5621 1.55549 20.695 2.00273 20.0545C2.51205 19.3051 3.29763 18.9538 4.26204 18.9538C4.67255 18.9538 5.06825 19.0242 5.4458 19.1665C5.88843 19.317 6.2699 19.6187 6.59788 20.0233L6.95814 20.4678L6.46939 20.7653C6.29972 20.8685 6.06783 21.1488 5.82325 21.7457C5.59246 22.309 5.47775 22.8898 5.47775 23.4917C5.47775 23.9766 5.61582 24.334 5.86283 24.606C6.12789 24.8938 6.55092 25.0773 7.22475 25.0773C7.64493 25.0773 8.08015 24.9576 8.53636 24.6955C9.00333 24.4161 9.46794 24.0198 9.92777 23.496L13.8503 14.2809ZM13.8503 14.2809C13.5125 16.0519 13.0247 17.7126 12.388 19.264L12.3876 19.2651C11.6582 21.0549 10.8353 22.4592 9.92823 23.4955L13.8503 14.2809Z" fill="#FFE0B2" stroke="black"/>
<path d="M66.2312 35.579L66.2312 35.579L66.234 35.5808C66.8798 36.0155 67.7399 36.2025 68.7562 36.2025C70.0118 36.2025 71.0879 35.9053 71.9455 35.2714L71.9465 35.2707C72.9069 34.5572 73.632 33.4041 74.1589 31.8827L74.3887 31.2191H73.6864H72.7072H72.365L72.2411 31.538C71.8806 32.4662 71.3978 33.0916 70.8179 33.4685L70.8179 33.4685L70.8151 33.4703C70.3262 33.7927 69.7631 33.9584 69.1092 33.9584C69.108 33.9584 69.1068 33.9584 69.1056 33.9584C69.1118 33.9425 69.1178 33.9265 69.1236 33.9103C69.2 33.7017 69.2335 33.4788 69.2335 33.2485C69.2335 32.7284 69.0655 32.2613 68.6708 31.9321C68.3011 31.6096 67.8171 31.4816 67.2874 31.4816C66.6863 31.4816 66.1632 31.6885 65.7752 32.1287C65.3962 32.5509 65.2276 33.0892 65.2276 33.6937C65.2276 34.4861 65.5737 35.13 66.2312 35.579ZM68.2394 47.6055C68.3826 47.9393 68.5785 48.2314 68.8342 48.4729C69.342 48.9526 70.0068 49.1687 70.7716 49.1687C71.3482 49.1687 71.9002 49.0664 72.4238 48.8599L72.4255 48.8592C73.1372 48.5756 73.7659 48.1147 74.3126 47.4919L74.3127 47.4919L74.3169 47.487C74.9612 46.7335 75.4922 45.7333 75.9229 44.5087L76.1571 43.8428H75.4512H74.472H74.0934L73.9907 44.2073C73.8202 44.8127 73.6049 45.2291 73.3692 45.4949L73.368 45.4963C73.1011 45.7995 72.8429 45.9087 72.5819 45.9087C72.2988 45.9087 72.1993 45.8516 72.1787 45.8351C72.1741 45.8297 72.1255 45.7676 72.1255 45.5413C72.1255 45.3088 72.1545 45.1067 72.207 44.9313L72.213 44.9114L72.2172 44.891L73.891 36.947L74.0181 36.3439H73.4017H70.0429H69.6374L69.5536 36.7406L67.9758 44.2166C67.7828 44.8341 67.572 45.2491 67.3632 45.5012C67.0958 45.803 66.8423 45.9087 66.5929 45.9087C66.5343 45.9087 66.5069 45.8987 66.498 45.8946C66.4918 45.8917 66.4861 45.8884 66.4769 45.8757C66.4507 45.8395 66.3983 45.7241 66.3983 45.45C66.3983 45.2822 66.4169 45.0949 66.4568 44.8868L68.1297 36.947L68.2567 36.3439H67.6404H64.2815H63.876L63.7923 36.7406L62.2096 44.2396L62.2095 44.24C62.0832 44.8416 62.0167 45.387 62.0167 45.8723C62.0167 46.8908 62.282 47.7479 62.8899 48.3583C63.4351 48.9135 64.1621 49.1687 65.0102 49.1687C65.7036 49.1687 66.3379 49.024 66.8991 48.7204L66.9011 48.7193C67.3898 48.4521 67.8348 48.0773 68.2394 47.6055Z" fill="#FFE0B2" stroke="black"/>
<path d="M54.0915 48.1668L54.0923 48.1676C54.8355 48.8581 55.858 49.1687 57.0856 49.1687C58.6056 49.1687 60.0015 48.6799 61.2602 47.7194L61.2602 47.7194L61.2623 47.7177C62.278 46.9339 63.1642 45.889 63.9265 44.5969L64.3715 43.8429H63.4959H62.6989H62.4768L62.3279 44.0077C61.9691 44.4048 61.6588 44.7305 61.3961 44.9866C61.1447 45.2244 60.8854 45.4284 60.6182 45.6001L60.6182 45.6L60.6149 45.6022C59.9988 46.005 59.3235 46.2055 58.5771 46.2055C58.047 46.2055 57.7957 46.0852 57.6839 45.9697L57.6839 45.9696L57.6787 45.9643C57.5373 45.8226 57.392 45.4735 57.392 44.7423C57.392 44.6167 57.3985 44.4577 57.4121 44.2637C58.0038 44.1882 58.5798 44.0382 59.139 43.8139L59.139 43.814L59.1437 43.812C59.8369 43.5259 60.4604 43.144 61.0113 42.666L61.0113 42.666L61.0145 42.6632C61.5688 42.1738 62.0079 41.6094 62.3265 40.9707L62.3277 40.9683C62.6504 40.3127 62.8118 39.6131 62.8118 38.8756C62.8118 38.1208 62.6252 37.4628 62.1762 36.9821L62.1762 36.982L62.1737 36.9794C61.6076 36.3821 60.7552 36.1385 59.7385 36.1385C58.1205 36.1385 56.7383 36.7071 55.6245 37.8403L55.6241 37.8407C55.1517 38.3225 54.7391 38.8749 54.3854 39.4955L54.3854 39.4954L54.383 39.4997C54.0404 40.1147 53.7581 40.7647 53.5358 41.4491L53.5357 41.4495C53.3384 42.0586 53.1918 42.6693 53.0965 43.2813C52.9946 43.8873 52.942 44.4472 52.942 44.9592C52.942 46.3174 53.2936 47.4221 54.0915 48.1668ZM59.9321 38.3712C59.9359 38.3712 59.9394 38.3713 59.9426 38.3714C59.9704 38.4213 60.0128 38.5544 60.0128 38.83C60.0128 39.2351 59.9349 39.6361 59.7757 40.0358C59.6147 40.4319 59.3943 40.7904 59.1131 41.113C58.8323 41.4275 58.5143 41.6791 58.158 41.8709C58.0352 41.937 57.9123 41.9927 57.7892 42.0381C57.8704 41.7236 57.9641 41.4126 58.0705 41.1049C58.2602 40.5564 58.4695 40.0729 58.6969 39.6522C58.9463 39.2026 59.1907 38.8713 59.4248 38.6424C59.6579 38.4218 59.8248 38.3712 59.9321 38.3712Z" fill="#FFE0B2" stroke="black"/>
<path d="M41.684 36.7623L41.7706 36.3439H41.1565H37.7976H37.3923L37.3085 36.7405L34.8377 48.4283L34.7101 49.0318H35.3269H38.6858H39.0912L39.175 48.635L40.7528 41.159C40.946 40.5411 41.1672 40.0978 41.4009 39.8018L41.4009 39.8019L41.4054 39.796C41.6603 39.4632 41.9082 39.3528 42.1585 39.3528C42.2076 39.3528 42.2295 39.3626 42.2384 39.3675C42.2468 39.3721 42.265 39.3842 42.2889 39.4205C42.3222 39.4808 42.3644 39.6172 42.3644 39.88C42.3644 40.0484 42.3458 40.2015 42.311 40.3411L42.3088 40.3498L42.3069 40.3586L40.599 48.4282L40.4713 49.0318H41.0882H44.4471H44.8526L44.9363 48.635L46.5141 41.159C46.7075 40.5405 46.9248 40.1016 47.1505 39.8137C47.4251 39.4702 47.6589 39.3756 47.8515 39.3756C47.9978 39.3756 48.0427 39.4177 48.0744 39.4628C48.1287 39.54 48.1941 39.7179 48.1941 40.0741C48.1941 40.3576 48.1543 40.7107 48.0674 41.1389L48.0674 41.1389L48.0661 41.1453C47.9846 41.5762 47.8575 42.1615 47.6837 42.9039C47.5085 43.6371 47.374 44.2413 47.2812 44.7145L47.2811 44.7145L47.2797 44.7223C47.1926 45.2063 47.1465 45.6442 47.1465 46.0321C47.1465 46.865 47.3757 47.5918 47.8688 48.1704C48.4567 48.8655 49.3334 49.1687 50.3906 49.1687C51.3109 49.1687 52.1372 48.89 52.8501 48.3325C53.8422 47.5605 54.612 46.2549 55.2025 44.5025L55.4248 43.8429H54.7287H53.7495H53.41L53.2847 44.1584C53.0078 44.8562 52.7697 45.2918 52.581 45.5165L52.5806 45.5169C52.349 45.7933 52.0945 45.9088 51.7911 45.9088C51.5501 45.9088 51.4687 45.8561 51.4471 45.8371C51.4043 45.7751 51.3574 45.655 51.3574 45.4272C51.3574 45.2744 51.3815 45.0509 51.4394 44.746C51.5583 44.1428 51.7111 43.4812 51.8981 42.7609C52.0068 42.3715 52.1001 41.9854 52.1781 41.6025C52.3701 40.6937 52.4732 39.9506 52.4732 39.3892C52.4732 38.4037 52.2048 37.5756 51.5839 37.0018L51.5839 37.0017L51.5795 36.9977C51.0091 36.4831 50.2591 36.2526 49.3886 36.2526C48.7702 36.2526 48.1894 36.3823 47.6538 36.6463C47.164 36.8862 46.7224 37.2321 46.3257 37.6733C46.1541 37.3276 45.9219 37.0311 45.6227 36.7943L45.6227 36.7943L45.6215 36.7933C45.1213 36.4 44.4809 36.2298 43.7525 36.2298C43.2174 36.2298 42.7059 36.3194 42.2217 36.5015L42.2216 36.5014L42.2138 36.5045C42.0318 36.5765 41.8552 36.6626 41.684 36.7623Z" fill="#FFE0B2" stroke="black"/>
<path d="M28.1703 42.883L28.1703 42.883L28.1651 42.8871C27.8678 43.1188 27.6039 43.3699 27.3752 43.6411C26.782 44.3246 26.4809 45.1286 26.4809 46.0321C26.4809 47.0743 26.8673 47.9147 27.6823 48.4567C28.4191 48.9516 29.4078 49.1687 30.5903 49.1687C32.0827 49.1687 33.4435 48.7059 34.6585 47.7908C35.6564 47.0503 36.5797 45.9813 37.4363 44.6074L37.913 43.8429H37.012H36.215H35.9818L35.8319 44.0216C35.1322 44.8559 34.4903 45.4194 33.91 45.7442L33.9099 45.7441L33.9021 45.7487C33.3811 46.0528 32.8119 46.2055 32.1843 46.2055C31.7055 46.2055 31.4081 46.1187 31.2337 46.0053C31.1161 45.9231 31.022 45.7832 31.022 45.4728C31.022 45.2408 31.0966 45.0364 31.2637 44.8421C31.4509 44.6289 31.6898 44.421 31.9862 44.2206L31.9862 44.2207L31.9927 44.2161C32.3073 43.9961 32.7227 43.7281 33.2418 43.4114L33.2418 43.4114L33.2435 43.4104C33.7018 43.1283 34.1222 42.8125 34.5035 42.4628L34.5035 42.4628L34.5054 42.461C34.9479 42.0509 35.2977 41.5919 35.5473 41.0833C35.8148 40.5465 35.9407 39.9393 35.9407 39.2751C35.9407 38.7665 35.8464 38.2975 35.6407 37.8824C35.4458 37.4662 35.1606 37.12 34.7897 36.8504L34.7897 36.8504L34.7858 36.8476C34.4443 36.6043 34.0554 36.4286 33.6256 36.316C33.2065 36.1965 32.7632 36.1385 32.2982 36.1385C30.8793 36.1385 29.6745 36.6093 28.7229 37.5628C27.9135 38.3662 27.259 39.535 26.7367 41.0275L26.504 41.6926H27.2086H28.3359H28.6674L28.7965 41.3872C29.1411 40.5713 29.4881 40.0259 29.8199 39.7051C30.1475 39.3955 30.4866 39.2615 30.8522 39.2615C31.1242 39.2615 31.2328 39.3325 31.2808 39.3849L31.2807 39.385L31.2881 39.3926C31.355 39.4625 31.4225 39.5925 31.4225 39.8572C31.4225 40.0935 31.3715 40.2917 31.2783 40.4629L31.2782 40.4628L31.2728 40.4733C31.1736 40.6663 31.0246 40.8657 30.8153 41.0697C30.6308 41.2406 30.4324 41.3982 30.2199 41.5427C30.0004 41.6893 29.6584 41.9055 29.1902 42.1932C28.8074 42.4282 28.4669 42.658 28.1703 42.883Z" fill="#FFE0B2" stroke="black"/>
<path d="M30.5996 38.8599L30.3924 38.2138L29.8366 38.603C29.3124 38.9702 28.7564 39.2759 28.1679 39.5206C27.6152 39.7468 27.1493 39.8689 26.7632 39.9049C26.7067 38.8169 26.4434 37.9155 25.9164 37.2587C25.299 36.4892 24.3885 36.1385 23.2805 36.1385C21.6906 36.1385 20.3097 36.7083 19.1628 37.8326C18.2214 38.7439 17.5129 39.9475 17.0228 41.4202C16.8099 42.0373 16.6513 42.6527 16.548 43.2663C16.4456 43.8663 16.3929 44.4236 16.3929 44.9364C16.3929 46.2974 16.7732 47.4034 17.6196 48.1522C18.3701 48.8224 19.3966 49.1231 20.6275 49.1231C21.4208 49.1231 22.1746 48.9404 22.8825 48.5771C23.5876 48.2153 24.2062 47.7008 24.7392 47.0432L24.7406 47.0414C25.2803 46.3692 25.7151 45.5743 26.0498 44.6637L26.0502 44.6624C26.3468 43.8484 26.5476 42.9653 26.6555 42.0154C27.4158 41.8611 28.1229 41.632 28.7751 41.3261C29.5416 40.9701 30.1845 40.5291 30.6909 39.9961L30.895 39.7813L30.8045 39.4991L30.5996 38.8599ZM23.3309 41.5572L23.335 41.5647L23.3393 41.5721C23.4354 41.735 23.5623 41.8625 23.7097 41.9592C23.6253 42.4751 23.5124 42.9618 23.3718 43.42C23.198 43.9861 22.995 44.4687 22.7659 44.8722C22.5349 45.2792 22.2988 45.576 22.0646 45.7801C21.8419 45.9731 21.6767 46.0229 21.5612 46.0229C21.3678 46.0229 21.2459 46.0014 21.1763 45.9779C21.1314 45.957 21.0922 45.9249 21.0553 45.8694L21.0501 45.8616L21.0446 45.854C21.0047 45.7986 20.9532 45.6886 20.9154 45.491C20.8838 45.2837 20.8657 44.9988 20.8657 44.6282C20.8657 43.8873 20.9997 43.0212 21.2796 42.0243C21.5657 41.0097 21.9272 40.1759 22.3567 39.5126L22.3567 39.5126L22.3594 39.5083C22.8401 38.749 23.2222 38.5538 23.474 38.5538C23.592 38.5538 23.6417 38.5717 23.6512 38.5761L23.6511 38.5763L23.6638 38.5817C23.6693 38.5841 23.681 38.5891 23.6988 38.6154C23.7461 38.697 23.7997 38.8609 23.8354 39.141C23.6614 39.2689 23.5151 39.4298 23.3993 39.621C23.2113 39.9314 23.1334 40.2935 23.1334 40.679C23.1334 40.9927 23.1882 41.2949 23.3309 41.5572Z" fill="#FFE0B2" stroke="black"/>
<path d="M12.0855 40.243L10.3465 48.4278L10.2182 49.0317H10.8356H14.1944H14.5997L14.6836 48.6352L18.3841 31.1492L18.5118 30.5457H17.8949H14.536H14.1318L14.0471 30.9409L12.6402 37.5081H10.2357L11.5977 31.1504L11.7135 30.6099L11.1642 30.5487C10.8684 30.5158 10.5382 30.5 10.1752 30.5C8.83557 30.5 7.48322 30.8118 6.12197 31.4227L6.12197 31.4227L6.11852 31.4243C5.47486 31.719 4.87668 32.0665 4.32493 32.4673C3.773 32.8683 3.28858 33.3085 2.87419 33.789C2.44308 34.2865 2.10336 34.8116 1.86087 35.3648L1.86083 35.3648L1.85835 35.3707C1.62197 35.9292 1.5 36.4975 1.5 37.0722C1.5 37.9693 1.73215 38.733 2.31572 39.2239L2.31778 39.2257C2.8498 39.6684 3.60703 39.8436 4.49354 39.8436H4.99354V39.3436C4.99354 39.1911 4.94916 39.0533 4.88238 38.9361L4.88248 38.9361L4.87702 38.927C4.85527 38.8906 4.83257 38.8411 4.81213 38.7745L4.80507 38.7515L4.79584 38.7293C4.71892 38.5443 4.66334 38.2327 4.66334 37.757C4.66334 36.5943 4.92571 35.6397 5.42476 34.8684C5.76034 34.3575 6.18986 33.9258 6.71953 33.5745L3.56042 48.4277L3.43196 49.0317H4.04948H7.40836H7.81329L7.89744 48.6356L9.6806 40.243H12.0855Z" fill="#FFE0B2" stroke="black"/>
</svg>
